<?xml version="1.0" encoding="UTF-8" standalone="no"?>
<svg
   width="180"
   height="180"
   stroke="gray"
   version="1.1"
   id="svg30"
   sodipodi:docname="matplotlib.svg"
   inkscape:version="1.1.2 (1:1.1+202202050942+0a00cf5339)"
   xmlns:inkscape="http://www.inkscape.org/namespaces/inkscape"
   xmlns:sodipodi="http://sodipodi.sourceforge.net/DTD/sodipodi-0.dtd"
   xmlns="http://www.w3.org/2000/svg"
   xmlns:svg="http://www.w3.org/2000/svg">
  <defs
     id="defs34" />
  <sodipodi:namedview
     id="namedview32"
     pagecolor="#ffffff"
     bordercolor="#666666"
     borderopacity="1.0"
     inkscape:pageshadow="2"
     inkscape:pageopacity="0.0"
     inkscape:pagecheckerboard="0"
     showgrid="false"
     inkscape:zoom="2.6111111"
     inkscape:cx="90.191489"
     inkscape:cy="90.191489"
     inkscape:window-width="1366"
     inkscape:window-height="704"
     inkscape:window-x="0"
     inkscape:window-y="0"
     inkscape:window-maximized="1"
     inkscape:current-layer="svg30" />
  <g
     stroke-width="2"
     fill="#FFF"
     id="g12">
    <circle
       cx="90"
       cy="90"
       r="88"
       id="circle2" />
    <circle
       cx="90"
       cy="90"
       r="66"
       id="circle4" />
    <circle
       cx="90"
       cy="90"
       r="44"
       id="circle6" />
    <circle
       cx="90"
       cy="90"
       r="22"
       id="circle8" />
    <path
       d="m90,2v176m62-26-124-124m124,0-124,124m150-62H2"
       id="path10" />
  </g>
  <g
     opacity=".8"
     id="g28">
    <path
       fill="#44C"
       d="m90,90h18a18,18 0 0,0 0-5z"
       id="path14" />
    <path
       fill="#BC3"
       d="m90,90 34-43a55,55 0 0,0-15-8z"
       id="path16" />
    <path
       fill="#D93"
       d="m90,90-16-72a74,74 0 0,0-31,15z"
       id="path18" />
    <path
       fill="#DB3"
       d="m90,90-58-28a65,65 0 0,0-5,39z"
       id="path20" />
    <path
       fill="#3BB"
       d="m90,90-33,16a37,37 0 0,0 2,5z"
       id="path22" />
    <path
       fill="#3C9"
       d="m90,90-10,45a46,46 0 0,0 18,0z"
       id="path24" />
    <path
       fill="#D73"
       d="m90,90 46,58a74,74 0 0,0 12-12z"
       id="path26" />
  </g>
</svg>
