<?xml version="1.0" encoding="UTF-8" standalone="no"?>
<!-- Created with Inkscape (http://www.inkscape.org/) -->

<svg
   width="194.8195mm"
   height="204.08459mm"
   viewBox="0 0 194.8195 204.08459"
   version="1.1"
   id="svg3641"
   inkscape:version="1.1.2 (1:1.1+202202050942+0a00cf5339)"
   sodipodi:docname="selenium.svg"
   xmlns:inkscape="http://www.inkscape.org/namespaces/inkscape"
   xmlns:sodipodi="http://sodipodi.sourceforge.net/DTD/sodipodi-0.dtd"
   xmlns="http://www.w3.org/2000/svg"
   xmlns:svg="http://www.w3.org/2000/svg">
  <sodipodi:namedview
     id="namedview3643"
     pagecolor="#ffffff"
     bordercolor="#666666"
     borderopacity="1.0"
     inkscape:pageshadow="2"
     inkscape:pageopacity="0.0"
     inkscape:pagecheckerboard="0"
     inkscape:document-units="mm"
     showgrid="false"
     inkscape:zoom="0.4187009"
     inkscape:cx="368.99849"
     inkscape:cy="228.08645"
     inkscape:window-width="1366"
     inkscape:window-height="704"
     inkscape:window-x="0"
     inkscape:window-y="0"
     inkscape:window-maximized="1"
     inkscape:current-layer="layer1" />
  <defs
     id="defs3638" />
  <g
     inkscape:label="Layer 1"
     inkscape:groupmode="layer"
     id="layer1"
     transform="translate(-7.7571804,-87.981412)">
    <path
       style="fill:#ffd500;fill-opacity:1;stroke-width:0.107103"
       d="m 8.8282094,292.02491 c -0.372041,-0.0934 -0.769706,-0.43909 -0.923007,-0.80247 -0.125609,-0.29773 -0.148022,-15.62782 -0.148022,-101.24159 0,-96.33601 0.0085,-100.906397 0.189659,-101.237797 0.104313,-0.1909 0.319074,-0.43188 0.477253,-0.53552 0.273797,-0.1794 4.5277696,-0.18992 88.7055746,-0.21937 48.629883,-0.017 88.631963,-8.1e-4 88.893483,0.0364 0.34031,0.0482 0.57632,0.16813 0.83005,0.42186 0.49645,0.49645 0.49721,1.10793 0.002,1.83786 -0.19377,0.28572 -6.68516,9.146622 -14.42534,19.690887 -22.19189,30.23143 -31.02727,42.27105 -33.5614,45.73284 -1.29364,1.76719 -2.47755,3.31893 -2.63089,3.44829 -0.51687,0.43603 -1.4686,0.506 -2.1225,0.15603 -0.12766,-0.0683 -4.40025,-4.766 -9.49466,-10.4393 -7.30835,-8.13881 -9.35365,-10.35615 -9.69433,-10.50978 -0.59577,-0.26865 -1.37836,-0.18712 -1.88056,0.19592 -0.34737,0.26496 -10.88205,13.9252 -11.1974,14.51959 -0.21068,0.39709 -0.17609,1.32459 0.0635,1.70125 0.1115,0.17534 7.50435,7.84148 16.42855,17.03587 12.23716,12.60766 16.32515,16.75683 16.62986,16.87875 0.5697,0.22795 1.1369,0.20095 1.66644,-0.0793 0.34426,-0.18222 3.17707,-3.29774 11.61656,-12.7759 47.78017,-53.66059 52.23249,-58.62584 52.67696,-58.74552 0.35575,-0.0958 0.49282,-0.0827 0.81601,0.0781 0.21365,0.10629 0.48795,0.32932 0.60957,0.49563 l 0.22111,0.30239 v 86.45076 c 0,73.32589 -0.0225,86.50407 -0.14803,86.80165 -0.0814,0.19298 -0.29829,0.45806 -0.48196,0.58907 l -0.33393,0.2382 -96.28533,0.0144 c -52.956923,0.008 -96.3817066,-0.01 -96.4995196,-0.0393 z m 56.9786296,-22.4201 c 15.532166,-0.8314 26.165595,-8.0797 29.128325,-19.8554 0.630792,-2.50715 0.752368,-3.62355 0.752874,-6.91338 4.05e-4,-3.14714 -0.101745,-4.1536 -0.641822,-6.31906 -1.864413,-7.47537 -7.277459,-12.71562 -16.869014,-16.33052 -3.495213,-1.31728 -6.603661,-2.22541 -12.263258,-3.58268 -7.075379,-1.69681 -9.603085,-2.37882 -11.729523,-3.16479 -3.565656,-1.31795 -5.499256,-2.70446 -6.351561,-4.5545 -0.275724,-0.5985 -0.327818,-0.85806 -0.371289,-1.85007 -0.187462,-4.27771 2.828232,-7.27171 8.331167,-8.27126 2.059837,-0.37415 6.148645,-0.32187 9.210833,0.11776 5.655819,0.812 11.720747,3.33951 16.375776,6.82447 0.612503,0.45855 1.248712,0.90357 1.413792,0.98893 0.61428,0.31766 1.629217,0.12904 2.12696,-0.39527 0.472067,-0.49727 8.15619,-10.71242 8.256349,-10.97588 0.171634,-0.45142 0.119549,-1.2427 -0.106167,-1.61287 -0.260742,-0.42762 -1.858539,-1.67336 -3.807955,-2.9689 -6.309069,-4.19288 -12.932608,-6.66077 -20.617265,-7.68185 -2.14599,-0.28514 -7.624261,-0.39414 -10.503513,-0.20897 -13.842685,0.89023 -24.194682,7.6612 -27.667092,18.09632 -0.878111,2.63884 -1.179823,4.61046 -1.165518,7.61628 0.04373,9.18559 4.215396,15.74181 12.774655,20.07673 4.268335,2.16175 7.915136,3.35628 17.024162,5.57636 9.274281,2.26037 11.272908,2.87117 14.035619,4.28951 2.069345,1.06238 3.505838,2.44912 4.119248,3.97657 0.146618,0.36509 0.324199,1.0966 0.394629,1.62559 0.110429,0.82942 0.102799,1.09184 -0.05544,1.90667 -0.55131,2.83901 -2.820876,5.2332 -6.217472,6.55887 -2.245331,0.87635 -4.381326,1.27095 -7.398246,1.36673 -9.145033,0.29035 -18.210507,-2.96816 -25.200855,-9.05824 -0.547602,-0.47708 -1.145735,-0.94503 -1.329181,-1.03989 -0.430947,-0.22285 -1.415229,-0.16052 -1.835287,0.11622 -0.425192,0.28013 -8.281903,11.30671 -8.416733,11.81254 -0.120201,0.45097 -0.01579,1.06456 0.250197,1.47052 0.405206,0.61842 3.055679,2.71813 5.479275,4.34067 7.204761,4.82344 15.435886,7.59676 24.112544,8.12426 1.669989,0.10154 5.878952,0.0528 8.760783,-0.10147 z m 74.329271,0.0631 c 7.38511,-0.21543 15.0459,-2.77359 21.24137,-7.09309 1.34605,-0.9385 1.65926,-1.58282 1.22061,-2.51109 -0.10154,-0.21488 -1.41197,-2.18507 -2.91206,-4.37819 -3.05441,-4.46556 -3.13996,-4.55885 -4.09905,-4.47007 -0.46063,0.0426 -0.72259,0.16001 -1.43386,0.64247 -3.45216,2.34163 -7.37571,3.8409 -11.71431,4.4763 -1.17286,0.17176 -2.14282,0.23189 -3.96279,0.24564 -2.72998,0.0206 -3.70987,-0.12258 -5.80111,-0.84784 -2.54841,-0.8838 -4.52517,-2.12389 -6.46994,-4.05879 -1.41507,-1.40791 -2.27961,-2.60096 -3.1689,-4.3731 -0.96079,-1.91458 -1.69998,-4.55472 -1.38238,-4.9374 0.1273,-0.15338 2.24554,-0.16933 22.48919,-0.16933 h 22.34865 l 0.47788,-0.24098 c 0.34934,-0.17616 0.54281,-0.36973 0.71923,-0.7196 0.23042,-0.45697 0.23866,-0.56114 0.182,-2.30271 -0.0947,-2.90942 -0.25405,-5.13399 -0.48753,-6.80437 -2.13682,-15.28741 -11.84133,-25.69559 -25.90822,-27.78682 -2.83783,-0.42187 -6.72037,-0.46784 -9.53214,-0.11284 -5.78107,0.7299 -11.55524,3.16808 -15.95798,6.73837 -6.96786,5.65038 -11.17342,13.64547 -11.88588,22.59595 -0.22289,2.79998 -0.11175,6.68368 0.26297,9.18977 0.84171,5.6293 3.38381,11.32254 6.94872,15.56218 1.1316,1.34579 3.33881,3.50078 4.69002,4.57907 4.14846,3.31055 9.43479,5.63435 14.81757,6.51361 2.31187,0.37763 3.87333,0.42167 9.31794,0.26285 z m -18.73946,-38.9306 c -0.17994,-0.19882 -0.181,-0.26559 -0.0195,-1.22117 0.78017,-4.61783 3.91683,-8.76434 8.2094,-10.85246 1.16713,-0.56775 2.23328,-0.92405 3.64149,-1.21695 1.55693,-0.32384 5.44938,-0.36247 6.89463,-0.0684 2.03505,0.41405 3.83185,1.14545 5.46062,2.22281 1.09449,0.72396 2.74852,2.31758 3.52561,3.39687 1.49718,2.07939 2.50604,4.66188 2.71287,6.94446 0.0639,0.70492 0.0513,0.77852 -0.15126,0.88694 -0.15812,0.0846 -4.46544,0.11824 -15.1522,0.11824 -14.70333,0 -14.93418,-0.003 -15.12161,-0.21032 z"
       id="path3462" />
  </g>
</svg>
